<svg width="37" height="37" viewBox="0 0 37 37" fill="none" xmlns="http://www.w3.org/2000/svg">
<g filter="url(#filter0_f_0_104)">
<circle cx="18.5" cy="18.5" r="14.5" fill="url(#paint0_linear_0_104)"/>
</g>
<circle cx="18.5" cy="18.5" r="14.5" fill="url(#paint1_linear_0_104)"/>
<path fill-rule="evenodd" clip-rule="evenodd" d="M21.8424 11.3253C20.7226 11.4703 19.7266 11.8793 19.7713 12.1757C19.8323 12.5798 20.7707 12.9118 22.303 13.0714C24.1262 13.2614 26.474 12.8233 26.6938 12.2522C26.8235 11.915 25.8219 11.4819 24.5426 11.3219C23.7654 11.2247 22.6083 11.2262 21.8424 11.3253ZM19.7541 13.5556C19.7541 14.1142 19.7624 14.1376 20.0154 14.291C20.159 14.3781 20.5787 14.5351 20.9479 14.6395C21.5441 14.8084 21.7998 14.8297 23.2355 14.8302C24.6751 14.8306 24.9241 14.8099 25.5132 14.6408C25.877 14.5364 26.2966 14.3758 26.4457 14.2838C26.7095 14.1212 26.7169 14.1012 26.7169 13.5477V12.9786L26.357 13.1325C25.5568 13.4746 24.7553 13.5928 23.2355 13.5928C21.7157 13.5928 20.9142 13.4746 20.114 13.1325L19.7541 12.9786V13.5556ZM11.8612 13.2143C11.0154 13.3978 10.4402 13.6826 10.4037 13.9359C10.3696 14.1727 10.7526 14.4001 11.5912 14.6408C12.1802 14.8099 12.4292 14.8306 13.8689 14.8302C15.3045 14.8297 15.5602 14.8084 16.1565 14.6395C17.7213 14.1964 17.736 13.73 16.1991 13.2796C15.3675 13.0359 12.8572 12.9982 11.8612 13.2143ZM10.4045 15.2953C10.4263 15.8271 10.452 15.9076 10.6461 16.0518C11.2414 16.494 13.3168 16.7808 14.8014 16.6262C15.8654 16.5153 16.7746 16.2873 17.0917 16.0518C17.2857 15.9076 17.3114 15.8271 17.3333 15.2953L17.3577 14.7001L17.1675 14.8237C16.8361 15.0388 15.7268 15.2942 14.8035 15.3679C13.2526 15.4918 11.1934 15.2268 10.5702 14.8233L10.38 14.7001L10.4045 15.2953ZM19.7711 15.2953C19.793 15.8271 19.8187 15.9076 20.0127 16.0518C20.608 16.494 22.6834 16.7808 24.168 16.6262C25.232 16.5153 26.1412 16.2873 26.4583 16.0518C26.6523 15.9076 26.678 15.8271 26.6999 15.2953L26.7244 14.7001L26.5341 14.8233C25.3911 15.5635 21.0798 15.5635 19.9369 14.8233L19.7466 14.7001L19.7711 15.2953ZM10.3875 17.1024C10.3875 17.6599 10.3931 17.6749 10.6683 17.8445C11.1661 18.1513 12.1629 18.3569 13.3922 18.4063L14.532 18.4521V17.9804C14.532 17.721 14.5679 17.4419 14.6117 17.3601C14.6863 17.2211 14.6147 17.2087 13.5134 17.1681C12.3147 17.1241 11.3934 16.9635 10.7421 16.685L10.3875 16.5334V17.1024ZM26.3396 16.695C25.7041 16.9647 24.7757 17.1246 23.5909 17.1681C22.4896 17.2087 22.4181 17.2211 22.4926 17.3601C22.5365 17.4419 22.5724 17.7157 22.5724 17.9688V18.4289H23.3904C24.6806 18.4289 26.3485 18.0694 26.6304 17.7305C26.686 17.6638 26.7147 17.3979 26.7002 17.0847L26.6755 16.5523L26.3396 16.695ZM17.2674 16.7794C16.175 16.9145 15.0293 17.3497 15.0293 17.6295C15.0293 17.9008 15.557 18.1635 16.5762 18.3996C17.4933 18.612 19.6161 18.6106 20.5416 18.397C21.5972 18.1534 22.1534 17.8426 22.0439 17.5579C21.9743 17.3771 21.2014 17.0405 20.5279 16.8977C19.8001 16.7436 18.0669 16.6806 17.2674 16.7794ZM10.3875 18.8276C10.3875 19.4555 10.4561 19.5679 10.9708 19.7822C11.4665 19.9887 12.547 20.1733 13.558 20.224L14.532 20.2729V19.5951V18.9174L14.2594 18.9684C13.5569 19.0999 11.0731 18.7036 10.574 18.3805L10.3875 18.2598V18.8276ZM26.525 18.3863C26.1102 18.6898 23.5351 19.0976 22.8462 18.9687L22.5724 18.9174V19.5952V20.273L23.5672 20.2197C25.0846 20.1384 26.3224 19.8394 26.6173 19.4832C26.6876 19.3981 26.7163 19.167 26.7002 18.8146C26.677 18.3108 26.6658 18.2832 26.525 18.3863ZM15.0293 18.9519C15.0293 19.3905 15.06 19.5036 15.2198 19.6533C15.6654 20.0707 16.9429 20.3303 18.5522 20.3303C20.1614 20.3303 21.439 20.0707 21.8845 19.6533C22.0444 19.5036 22.075 19.3905 22.075 18.9519C22.075 18.6643 22.0634 18.4289 22.0492 18.4289C22.0349 18.4289 21.8764 18.4992 21.6969 18.585C20.9931 18.9216 20.1299 19.049 18.5522 19.049C16.9744 19.049 16.1113 18.9216 15.4075 18.585C15.2279 18.4992 15.0695 18.4289 15.0552 18.4289C15.0409 18.4289 15.0293 18.6643 15.0293 18.9519ZM10.3875 20.6572C10.3875 21.21 10.3952 21.2309 10.6569 21.3923C11.1801 21.7148 12.0991 21.9083 13.3508 21.9596L14.532 22.008V21.3876V20.7671L13.4337 20.7226C12.3094 20.677 11.3712 20.5087 10.7421 20.2398L10.3875 20.0882V20.6572ZM26.3396 20.2497C25.7259 20.5102 24.7815 20.6776 23.6707 20.7226L22.5724 20.7671V21.3754V21.9837L23.422 21.983C24.3872 21.9824 25.0572 21.8902 25.8324 21.6514C26.6508 21.3992 26.7304 21.3076 26.7004 20.6527L26.6755 20.1071L26.3396 20.2497ZM15.0293 20.7426C15.0293 21.2686 15.0464 21.3232 15.2573 21.4723C15.8547 21.8948 16.9396 22.1021 18.5522 22.1021C20.1647 22.1021 21.2497 21.8948 21.8471 21.4723C22.058 21.3232 22.075 21.2686 22.075 20.7426V20.1742L21.6269 20.3787C20.8836 20.7181 20.0239 20.8499 18.5522 20.8499C17.0805 20.8499 16.2208 20.7181 15.4774 20.3787L15.0293 20.1742V20.7426ZM10.4045 22.4104C10.4279 22.9863 10.4402 23.0187 10.7014 23.194C11.1041 23.4641 12.3117 23.7157 13.4919 23.7754L14.532 23.828V23.1446V22.4613L14.2589 22.5125C13.5244 22.6499 11.0858 22.2667 10.5702 21.9329L10.38 21.8097L10.4045 22.4104ZM26.525 21.941C26.0978 22.2538 23.565 22.647 22.8453 22.5124L22.5724 22.4613V23.1446V23.8279L23.6292 23.7736C24.6795 23.7197 25.8493 23.4988 26.2909 23.271C26.6706 23.0752 26.7268 22.9513 26.7002 22.3694C26.677 21.8656 26.6658 21.838 26.525 21.941ZM15.0293 22.5178C15.0293 23.1656 15.1465 23.3057 15.892 23.5493C16.6431 23.7947 17.3519 23.8839 18.5522 23.8839C19.7524 23.8839 20.4612 23.7947 21.2124 23.5493C21.9578 23.3057 22.075 23.1656 22.075 22.5178C22.075 22.224 22.0634 21.9837 22.0492 21.9837C22.0349 21.9837 21.8629 22.061 21.667 22.1554C20.9648 22.4938 20.232 22.5979 18.5522 22.5979C16.8723 22.5979 16.1396 22.4938 15.4374 22.1554C15.2415 22.061 15.0695 21.9837 15.0552 21.9837C15.0409 21.9837 15.0293 22.224 15.0293 22.5178ZM15.0466 24.322C15.0697 24.8865 15.0828 24.9207 15.3432 25.0954C15.4931 25.1959 15.9594 25.363 16.3794 25.4666C17.4863 25.7398 19.6181 25.7398 20.725 25.4666C21.145 25.363 21.6113 25.1959 21.7611 25.0954C22.0216 24.9207 22.0347 24.8865 22.0578 24.322L22.0821 23.7314L21.7509 23.891C20.26 24.6094 16.8444 24.6094 15.3534 23.891L15.0223 23.7314L15.0466 24.322Z" fill="white"/>
<defs>
<filter id="filter0_f_0_104" x="0" y="0" width="37" height="37" filterUnits="userSpaceOnUse" color-interpolation-filters="sRGB">
<feFlood flood-opacity="0" result="BackgroundImageFix"/>
<feBlend mode="normal" in="SourceGraphic" in2="BackgroundImageFix" result="shape"/>
<feGaussianBlur stdDeviation="2" result="effect1_foregroundBlur_0_104"/>
</filter>
<linearGradient id="paint0_linear_0_104" x1="18.5" y1="4" x2="18.5" y2="33" gradientUnits="userSpaceOnUse">
<stop offset="0.103023" stop-color="#952FFE"/>
<stop offset="0.443926" stop-color="#C641C6"/>
<stop offset="0.76148" stop-color="#FF676B"/>
</linearGradient>
<linearGradient id="paint1_linear_0_104" x1="18.5" y1="4" x2="18.5" y2="33" gradientUnits="userSpaceOnUse">
<stop offset="0.103023" stop-color="#952FFE"/>
<stop offset="0.443926" stop-color="#C641C6"/>
<stop offset="0.76148" stop-color="#FF676B"/>
</linearGradient>
</defs>
</svg>
