<svg width="37" height="37" viewBox="0 0 37 37" fill="none" xmlns="http://www.w3.org/2000/svg">
<g filter="url(#filter0_f_0_112)">
<circle cx="18.5" cy="18.5" r="14.5" fill="url(#paint0_linear_0_112)"/>
</g>
<circle cx="18.5" cy="18.5" r="14.5" fill="url(#paint1_linear_0_112)"/>
<path fill-rule="evenodd" clip-rule="evenodd" d="M15.1339 11.3323C14.4898 11.5127 14.0839 11.8443 13.8444 12.3859C13.6063 12.9242 13.5937 13.4751 13.8066 14.03C13.8492 14.1408 13.7521 14.1488 12.3516 14.1488H10.851L10.6291 14.3467L10.4072 14.5447L10.3852 15.4573C10.3564 16.6496 10.4331 16.845 11.0016 17.0267C11.1131 17.0623 11.1205 17.3201 11.1205 21.1743V25.2839L11.3187 25.5057L11.5169 25.7275L18.2306 25.7456C23.1765 25.7589 24.994 25.7431 25.1333 25.6855C25.2373 25.6424 25.3825 25.5309 25.456 25.4375C25.5854 25.273 25.5895 25.1414 25.5895 21.1662C25.5895 17.3197 25.5969 17.0623 25.7084 17.0267C26.2769 16.845 26.3536 16.6496 26.3248 15.4573L26.3028 14.5447L26.0809 14.3467L25.859 14.1488H24.3657C23.5443 14.1488 22.8723 14.1359 22.8723 14.1203C22.8723 14.1046 22.9198 13.9064 22.9779 13.68C23.1851 12.8714 22.8632 12.0251 22.1862 11.5978C21.1089 10.918 19.4774 11.2848 18.687 12.3846C18.5534 12.5705 18.404 12.7226 18.355 12.7226C18.306 12.7226 18.1566 12.5705 18.023 12.3846C17.3945 11.5101 16.1357 11.0516 15.1339 11.3323ZM16.729 12.1965C17.1571 12.4156 17.5169 12.8068 17.6778 13.228C17.7907 13.5236 17.7924 13.574 17.6981 13.8326L17.5952 14.1148L16.1327 14.1331L14.6702 14.1513L14.5482 13.9653C14.4088 13.7526 14.3435 13.2501 14.4095 12.8982C14.4645 12.6049 14.7228 12.287 15.0517 12.1076C15.415 11.9094 16.2552 11.9539 16.729 12.1965ZM21.5644 12.0801C21.9012 12.2208 22.0527 12.3656 22.2011 12.6887C22.3671 13.05 22.3617 13.4948 22.187 13.8557L22.0451 14.1488H20.5707H19.0963L18.9907 13.8601C18.8979 13.6066 18.8968 13.5369 18.9818 13.2866C19.1602 12.7611 19.7531 12.224 20.3589 12.0391C20.6531 11.9493 21.3043 11.9715 21.5644 12.0801ZM17.105 15.0825C17.0325 15.2226 16.8251 15.5511 16.6442 15.8126L16.3154 16.2879L13.7179 16.3057L11.1205 16.3235V15.5757V14.8279H14.1787H17.237L17.105 15.0825ZM25.5895 15.5749V16.3219H22.9987C20.612 16.3219 20.4005 16.3125 20.3147 16.203C20.184 16.0364 19.4758 14.9047 19.4758 14.8626C19.4758 14.8435 20.8514 14.8279 22.5327 14.8279H25.5895V15.5749ZM17.9814 15.6767V16.3219H17.6021C17.3935 16.3219 17.233 16.2982 17.2455 16.2693C17.2898 16.1662 17.9477 15.0353 17.9644 15.0335C17.9738 15.0325 17.9814 15.3219 17.9814 15.6767ZM19.3481 16.0607C19.4184 16.1599 19.4758 16.2592 19.4758 16.2814C19.4758 16.3037 19.3077 16.3219 19.1022 16.3219H18.7286L18.7294 15.6598L18.7302 14.9976L18.9753 15.4391C19.1101 15.6818 19.2779 15.9616 19.3481 16.0607ZM15.6718 17.0538C15.6718 17.0828 15.4578 17.3188 15.1963 17.5782C14.9347 17.8377 14.7208 18.0942 14.7208 18.1483C14.7208 18.3036 14.9307 18.495 15.101 18.495C15.2798 18.495 15.888 17.9545 16.3511 17.3842L16.6568 17.0076L17.3191 17.0043L17.9814 17.001V18.8346V20.6682H14.8906H11.7998V18.8799C11.7998 17.8963 11.8202 17.0712 11.8451 17.0463C11.9091 16.9823 15.6718 16.9897 15.6718 17.0538ZM20.6902 17.7492C21.4789 18.5669 21.6735 18.6611 21.8906 18.3298C22.0284 18.1196 21.9833 18.0357 21.4508 17.5124C21.2239 17.2896 21.0382 17.0828 21.0382 17.053C21.0382 17.0232 21.9018 17.007 22.9572 17.0169L24.8762 17.035L24.8943 18.8516L24.9124 20.6682H21.8205H18.7286V18.8346V17.001H19.3486H19.9685L20.6902 17.7492ZM17.9814 23.2148V25.0145H14.8906H11.7998V23.2148V21.4152H14.8906H17.9814V23.2148ZM24.9102 23.2148V25.0145H21.8194H18.7286V23.2148V21.4152H21.8194H24.9102V23.2148Z" fill="white"/>
<defs>
<filter id="filter0_f_0_112" x="0" y="0" width="37" height="37" filterUnits="userSpaceOnUse" color-interpolation-filters="sRGB">
<feFlood flood-opacity="0" result="BackgroundImageFix"/>
<feBlend mode="normal" in="SourceGraphic" in2="BackgroundImageFix" result="shape"/>
<feGaussianBlur stdDeviation="2" result="effect1_foregroundBlur_0_112"/>
</filter>
<linearGradient id="paint0_linear_0_112" x1="18.5" y1="4" x2="18.5" y2="33" gradientUnits="userSpaceOnUse">
<stop offset="0.103023" stop-color="#952FFE"/>
<stop offset="0.443926" stop-color="#C641C6"/>
<stop offset="0.76148" stop-color="#FF676B"/>
</linearGradient>
<linearGradient id="paint1_linear_0_112" x1="18.5" y1="4" x2="18.5" y2="33" gradientUnits="userSpaceOnUse">
<stop offset="0.103023" stop-color="#952FFE"/>
<stop offset="0.443926" stop-color="#C641C6"/>
<stop offset="0.76148" stop-color="#FF676B"/>
</linearGradient>
</defs>
</svg>
