<svg width="37" height="37" viewBox="0 0 37 37" fill="none" xmlns="http://www.w3.org/2000/svg">
<g filter="url(#filter0_f_0_3620)">
<circle cx="18.5" cy="18.5" r="14.5" fill="url(#paint0_linear_0_3620)"/>
</g>
<circle cx="18.5" cy="18.5" r="14.5" fill="url(#paint1_linear_0_3620)"/>
<path fill-rule="evenodd" clip-rule="evenodd" d="M21.3863 10.9249C21.169 11.0196 20.8975 11.376 20.8967 11.5676C20.8964 11.6453 20.8102 11.6689 20.5273 11.6689C20.2004 11.6689 20.1332 11.6941 19.9381 11.8895L19.718 12.1102L19.6843 14.0772L19.6506 16.0443L19.4485 15.8756C19.1364 15.6148 18.9783 15.5517 18.638 15.5517C18.3704 15.5517 18.2897 15.5858 18.0947 15.7813C17.896 15.9806 17.8657 16.055 17.8657 16.3451C17.8657 16.7893 17.9992 16.9653 19.2691 18.1959L20.2905 19.1857V23.176V27.1663H20.5599H20.8293L20.827 23.0978C20.8251 19.8905 20.806 18.9958 20.737 18.8711C20.6889 18.7841 20.5157 18.6068 20.3521 18.477C19.7883 18.0298 18.4079 16.6351 18.3668 16.4713C18.3052 16.2251 18.4415 16.0244 18.6703 16.0244C18.8082 16.0244 19.0028 16.1408 19.3475 16.4295C19.6136 16.6524 19.8729 16.8347 19.9237 16.8347C20.1287 16.8347 20.1558 16.5612 20.1558 14.4907C20.1558 12.2362 20.1754 12.1078 20.5196 12.1078C20.8597 12.1078 20.8967 12.2523 20.8967 13.5819V14.8089H21.1324H21.3681V13.1882C21.3681 11.6576 21.3756 11.5601 21.5028 11.4325C21.5769 11.3583 21.683 11.2975 21.7386 11.2975C21.7942 11.2975 21.9002 11.3583 21.9743 11.4325C22.1016 11.5601 22.109 11.6576 22.109 13.1882V14.8089H22.3448H22.5805V13.5701C22.5805 12.4558 22.5929 12.3201 22.7037 12.2196C22.8589 12.0787 23.0783 12.0763 23.2156 12.2139C23.3041 12.3027 23.3214 12.5232 23.3214 13.5644V14.8089H23.5571H23.7929V14.0136C23.7929 13.1385 23.8674 12.9181 24.1633 12.9181C24.5168 12.9181 24.5338 13.0313 24.5338 15.3856C24.5338 17.8665 24.5055 18.0546 24.061 18.5326L23.7929 18.8208V22.9936V27.1663H24.0623H24.3317V23.0803V18.9944L24.5394 18.708C24.9683 18.1163 24.9612 18.1661 24.9902 15.5803C25.0199 12.9408 25.0066 12.8414 24.5883 12.5783C24.4245 12.4752 24.2896 12.4458 24.0791 12.4672C23.8313 12.4924 23.7929 12.4789 23.7929 12.3663C23.7929 11.9435 23.3644 11.6074 22.8751 11.6464C22.6473 11.6646 22.5804 11.6468 22.5802 11.5681C22.5798 11.3699 22.305 11.0179 22.076 10.922C21.791 10.8026 21.6657 10.8031 21.3863 10.9249ZM14.369 16.739C14.2553 16.835 14.137 17.0097 14.1062 17.1273C14.0547 17.3238 14.0304 17.3394 13.8062 17.3194C13.5044 17.2925 13.1312 17.463 12.9697 17.7015C12.8606 17.8625 12.8457 18.081 12.8272 19.7875L12.8065 21.6936L12.466 21.4588C11.9198 21.0821 11.3332 21.1727 11.0977 21.6701C10.8445 22.2052 11.0312 22.5334 12.2826 23.7522C12.8378 24.2929 13.3209 24.7354 13.3562 24.7354C13.3945 24.7354 13.4204 25.2258 13.4204 25.9509V27.1663H13.6898H13.9592L13.9568 25.934C13.9552 25.0956 13.9283 24.6555 13.8726 24.5572C13.8277 24.4778 13.6643 24.3074 13.5095 24.1785C12.812 23.5971 11.6613 22.458 11.5641 22.2525C11.466 22.0454 11.4661 22.0121 11.5646 21.8614C11.759 21.5639 12.0123 21.6488 12.6308 22.2192C12.994 22.554 13.2163 22.5827 13.293 22.3044C13.3187 22.2115 13.3426 21.2059 13.3463 20.0696C13.3525 18.1588 13.3622 17.9952 13.4762 17.8918C13.6363 17.7466 13.7767 17.7504 13.9151 17.9036C14.0102 18.0089 14.0265 18.2071 14.0265 19.2541V20.4812H14.296H14.5654V18.8403C14.5654 17.0859 14.5745 17.0373 14.9022 17.0373C15.2298 17.0373 15.2389 17.0859 15.2389 18.8403V20.4812H15.5083H15.7778V19.2424C15.7778 18.0832 15.7865 17.9956 15.9145 17.8796C16.0229 17.7812 16.0893 17.7689 16.2344 17.82L16.4176 17.8845L16.4359 19.1828L16.4542 20.4812H16.7222H16.9901V19.6386C16.9901 18.8145 16.9938 18.7937 17.1585 18.6855C17.3145 18.583 17.3393 18.583 17.4953 18.6855L17.6637 18.7961V21.1448V23.4933L17.492 23.8386C17.3977 24.0285 17.2461 24.2327 17.1553 24.2923L16.9901 24.4008V25.7836V27.1663H17.2595H17.529V25.9238V24.6814L17.7625 24.3335C17.8909 24.1421 18.0272 23.8732 18.0652 23.7358C18.1066 23.5866 18.1345 22.5172 18.1347 21.0772L18.1351 18.6683L17.9645 18.465C17.7684 18.2314 17.416 18.0927 17.1733 18.1538C17.0233 18.1915 16.9968 18.1661 16.9139 17.9055C16.7823 17.4912 16.4605 17.2821 16.0303 17.3317C15.7226 17.3672 15.7104 17.362 15.7104 17.1962C15.7104 17.0902 15.6222 16.9354 15.4814 16.7942C15.2818 16.594 15.209 16.5646 14.9141 16.5646C14.6486 16.5646 14.5312 16.6021 14.369 16.739Z" fill="white"/>
<defs>
<filter id="filter0_f_0_3620" x="0" y="0" width="37" height="37" filterUnits="userSpaceOnUse" color-interpolation-filters="sRGB">
<feFlood flood-opacity="0" result="BackgroundImageFix"/>
<feBlend mode="normal" in="SourceGraphic" in2="BackgroundImageFix" result="shape"/>
<feGaussianBlur stdDeviation="2" result="effect1_foregroundBlur_0_3620"/>
</filter>
<linearGradient id="paint0_linear_0_3620" x1="18.5" y1="4" x2="18.5" y2="33" gradientUnits="userSpaceOnUse">
<stop offset="0.103023" stop-color="#952FFE"/>
<stop offset="0.443926" stop-color="#C641C6"/>
<stop offset="0.76148" stop-color="#FF676B"/>
</linearGradient>
<linearGradient id="paint1_linear_0_3620" x1="18.5" y1="4" x2="18.5" y2="33" gradientUnits="userSpaceOnUse">
<stop offset="0.103023" stop-color="#952FFE"/>
<stop offset="0.443926" stop-color="#C641C6"/>
<stop offset="0.76148" stop-color="#FF676B"/>
</linearGradient>
</defs>
</svg>
