<svg width="37" height="37" viewBox="0 0 37 37" fill="none" xmlns="http://www.w3.org/2000/svg">
<g filter="url(#filter0_f_0_100)">
<circle cx="18.5" cy="18.5" r="14.5" fill="url(#paint0_linear_0_100)"/>
</g>
<circle cx="18.5" cy="18.5" r="14.5" fill="url(#paint1_linear_0_100)"/>
<path fill-rule="evenodd" clip-rule="evenodd" d="M16.0882 14.1217L13.5923 15.5594L13.5906 16.4035L13.5888 17.2476H13.0115H12.4341L11.7553 16.5654L11.0764 15.8833L11.0723 15.5589C11.0691 15.3043 11.0385 15.2027 10.9306 15.0876C10.4761 14.6028 9.74721 14.8877 9.74656 15.5505C9.74639 15.7324 9.7883 15.8206 9.95329 15.9859C10.1397 16.1728 10.187 16.1911 10.4307 16.1717L10.7013 16.1501L11.499 16.9358L12.2969 17.7214H13.1778H14.0588L14.0751 16.7645L14.0913 15.8076L16.2786 14.5365C17.4816 13.8375 18.5072 13.2535 18.5577 13.2387C18.6082 13.224 19.659 13.7959 20.8928 14.5098L23.136 15.8076L23.1523 16.7645L23.1685 17.7214H24.0608H24.9531L25.7135 16.9407L26.474 16.1601L26.7735 16.1738C27.0446 16.1862 27.0922 16.1681 27.277 15.983C27.4391 15.8206 27.481 15.7317 27.4808 15.5505C27.4801 14.8769 26.7226 14.6035 26.2691 15.1132C26.182 15.2112 26.1509 15.3299 26.1509 15.5646V15.8831L25.472 16.5654L24.7932 17.2476H24.2158H23.6385L23.6367 16.4035L23.6348 15.5594L21.1717 14.1378C19.817 13.3559 18.6805 12.7089 18.6463 12.7C18.6121 12.6912 17.461 13.3309 16.0882 14.1217ZM16.6037 14.9644L14.6234 16.1131L14.6072 17.1838L14.5911 18.2546H13.3349H12.0788L11.5789 17.7511L11.079 17.2476H10.0935H9.10788L8.90097 17.0403C8.656 16.7948 8.35492 16.7624 8.04977 16.9489C7.6693 17.1814 7.67882 17.8014 8.06673 18.0561C8.37774 18.2603 8.94454 18.1283 9.02139 17.8339C9.04864 17.7295 9.11698 17.7214 9.97623 17.7214H10.9017L11.4016 18.2249L11.9014 18.7284H13.2476H14.5938V19.7808V20.8331L16.6037 21.9969L18.6137 23.1606L20.6236 21.9969L22.6335 20.8331V19.7808V18.7284H23.9797H25.3259L25.8258 18.2249L26.3257 17.7214H27.2245H28.1233L28.2465 17.8949C28.4822 18.2266 29.0115 18.2601 29.2822 17.9605C29.4406 17.7851 29.497 17.4359 29.4032 17.211C29.2175 16.7658 28.4642 16.6975 28.246 17.106C28.1708 17.2468 28.1649 17.2476 27.1594 17.2476H26.1483L25.6484 17.7511L25.1486 18.2546H23.8924H22.6362L22.6201 17.1838L22.604 16.1131L20.6236 14.9644C19.5344 14.3327 18.6299 13.8158 18.6137 13.8158C18.5974 13.8158 17.6929 14.3327 16.6037 14.9644ZM19.9998 15.1274C20.6843 15.5222 21.4571 15.9697 21.7172 16.1218L22.1902 16.3983L22.2057 18.4753L22.2212 20.5523L20.4142 21.5936L18.6072 22.6349L17.1473 21.788C16.3444 21.3222 15.5342 20.8543 15.3468 20.7481L15.0061 20.5552L15.0216 18.4773L15.0372 16.3995L16.8106 15.372C17.8054 14.7956 18.6217 14.3587 18.6697 14.377C18.7168 14.395 19.3154 14.7326 19.9998 15.1274ZM10.5621 15.3639C10.6701 15.4721 10.647 15.6366 10.5136 15.7081C10.3788 15.7805 10.3058 15.7511 10.2197 15.5898C10.1138 15.3917 10.4009 15.2023 10.5621 15.3639ZM26.9742 15.3858C27.068 15.4798 27.027 15.6522 26.8908 15.7366C26.8005 15.7924 26.5943 15.6554 26.5943 15.5396C26.5943 15.3142 26.814 15.2253 26.9742 15.3858ZM15.6578 18.5952L15.6578 20.2389L15.9297 20.2317L16.2016 20.2246L16.1931 19.3284C16.1885 18.8355 16.2003 18.4323 16.2195 18.4323C16.2386 18.4323 16.453 18.8388 16.6958 19.3356C16.9386 19.8324 17.1636 20.2362 17.1957 20.233C17.2278 20.2297 17.3205 20.2231 17.4018 20.2182L17.5496 20.2093V18.5771V16.9449L17.2688 16.963L16.988 16.981L16.9981 17.9211C17.0037 18.4382 16.9879 18.8381 16.9632 18.8096C16.9383 18.7813 16.7344 18.3515 16.5101 17.8547L16.1022 16.9514H15.88H15.6579L15.6578 18.5952ZM18.0225 18.5787V20.2093H18.3161H18.6098L18.6265 19.5429L18.6432 18.8765L19.1014 18.8592L19.5595 18.8419V18.6075V18.373H19.0866H18.6137V17.9288V17.4845H19.1626H19.7115L19.7094 17.2328L19.7073 16.981L18.8649 16.9646L18.0225 16.9481V18.5787ZM19.9733 17.218V17.4845H20.2689H20.5645V18.8617V20.2389H20.8601H21.1556V18.8617V17.4845H21.4512H21.7468V17.218V16.9514H20.8601H19.9733V17.218ZM8.5967 17.3695C8.68106 17.4629 8.69212 17.5149 8.64388 17.5917C8.56313 17.7201 8.40487 17.7511 8.29516 17.6598C8.18384 17.5673 8.18632 17.4568 8.30219 17.3406C8.42355 17.2191 8.46446 17.2231 8.5967 17.3695ZM28.9037 17.3089C29.1169 17.4233 28.9859 17.7587 28.7464 17.7116C28.565 17.6758 28.5075 17.5059 28.6306 17.3695C28.7585 17.2279 28.7544 17.2289 28.9037 17.3089ZM10.0605 18.9032C9.82466 19.0472 9.74633 19.1915 9.74633 19.4814C9.74633 19.7475 9.8629 19.9378 10.1017 20.0616C10.428 20.2306 10.8267 20.1258 10.985 19.8293L11.0669 19.6762H12.3263H13.5857L13.602 20.5408L13.6184 21.4055L16.1159 22.8527L18.6134 24.2999L21.1112 22.8536L23.6089 21.4071L23.6253 20.5417L23.6416 19.6762H24.9011H26.1605L26.2423 19.8293C26.5527 20.4106 27.481 20.1354 27.481 19.462C27.481 18.8063 26.5462 18.5394 26.2423 19.1084L26.1605 19.2615H24.663H23.1656V20.2005V21.1393L20.8893 22.4566L18.613 23.7738L16.5886 22.6042C15.4752 21.961 14.4512 21.3697 14.313 21.2903L14.0618 21.1458V20.2037V19.2615H12.5643H11.0669L10.985 19.1084C10.8175 18.7947 10.3924 18.7004 10.0605 18.9032ZM10.6008 19.3717C10.6546 19.5414 10.5758 19.6762 10.4228 19.6762C10.2516 19.6762 10.1481 19.5131 10.2263 19.3667C10.3014 19.2262 10.5559 19.2295 10.6008 19.3717ZM27.0037 19.3718C27.0868 19.5274 26.9548 19.6934 26.7689 19.667C26.6231 19.6463 26.5563 19.5055 26.617 19.347C26.6642 19.2237 26.9339 19.241 27.0037 19.3718Z" fill="white"/>
<defs>
<filter id="filter0_f_0_100" x="0" y="0" width="37" height="37" filterUnits="userSpaceOnUse" color-interpolation-filters="sRGB">
<feFlood flood-opacity="0" result="BackgroundImageFix"/>
<feBlend mode="normal" in="SourceGraphic" in2="BackgroundImageFix" result="shape"/>
<feGaussianBlur stdDeviation="2" result="effect1_foregroundBlur_0_100"/>
</filter>
<linearGradient id="paint0_linear_0_100" x1="18.5" y1="4" x2="18.5" y2="33" gradientUnits="userSpaceOnUse">
<stop offset="0.103023" stop-color="#952FFE"/>
<stop offset="0.443926" stop-color="#C641C6"/>
<stop offset="0.76148" stop-color="#FF676B"/>
</linearGradient>
<linearGradient id="paint1_linear_0_100" x1="18.5" y1="4" x2="18.5" y2="33" gradientUnits="userSpaceOnUse">
<stop offset="0.103023" stop-color="#952FFE"/>
<stop offset="0.443926" stop-color="#C641C6"/>
<stop offset="0.76148" stop-color="#FF676B"/>
</linearGradient>
</defs>
</svg>
