<svg width="37" height="37" viewBox="0 0 37 37" fill="none" xmlns="http://www.w3.org/2000/svg">
<g filter="url(#filter0_f_0_108)">
<circle cx="18.5" cy="18.5" r="14.5" fill="url(#paint0_linear_0_108)"/>
</g>
<circle cx="18.5" cy="18.5" r="14.5" fill="url(#paint1_linear_0_108)"/>
<path fill-rule="evenodd" clip-rule="evenodd" d="M17.1069 11.4099C15.6188 11.7681 14.0796 12.9237 13.3722 14.214C12.7253 15.3939 12.4773 17.1434 12.7956 18.2813L12.9318 18.7686L11.2209 20.4702C10.28 21.4061 9.51001 22.2064 9.51001 22.2488C9.51001 22.2912 10.2684 22.3662 11.1953 22.4156L12.8807 22.5052L12.9567 22.9618C12.9985 23.213 13.0391 23.8684 13.0468 24.4184C13.0717 26.2116 12.9893 26.2191 14.9751 24.2435C16.6207 22.6063 16.7453 22.5093 17.0527 22.6253C17.4581 22.7784 19.3868 22.7779 19.8978 22.6245C20.2627 22.5149 20.3366 22.5712 22.0698 24.2755L23.864 26.04V25.4047C23.864 25.0552 23.9005 24.2593 23.9451 23.6358L24.0261 22.5024L25.7838 22.4126L27.5416 22.3227L25.7832 20.5582C24.2041 18.9737 24.0345 18.762 24.1207 18.4814C24.3134 17.8541 24.2499 16.0301 24.0088 15.261C23.1157 12.4124 20.0494 10.7014 17.1069 11.4099ZM20.4738 12.7707C21.4261 13.2232 22.3104 14.1183 22.7815 15.1067C23.1226 15.8224 23.1678 16.0456 23.1609 16.9815C23.1498 18.4674 22.8075 19.3022 21.7975 20.3047C20.799 21.2959 19.9355 21.6526 18.5127 21.662C16.3891 21.676 14.6341 20.4368 13.9711 18.455C13.6519 17.5012 13.7666 15.8737 14.2138 15.0084C14.844 13.7893 15.8313 12.9421 17.1008 12.531C17.9701 12.2497 19.6244 12.3673 20.4738 12.7707ZM18.2071 14.8953C18.1463 15.054 18.0261 15.4174 17.94 15.7026L17.7835 16.2213L16.8904 16.2577C15.7473 16.3042 15.685 16.5008 16.6112 17.1369L17.2926 17.6048L17.0423 18.4328C16.7021 19.5585 16.8479 19.6739 17.7535 18.9951L18.4537 18.4704L19.1675 18.9778C20.0319 19.5923 20.2186 19.513 19.9708 18.6369C19.6611 17.5413 19.6522 17.5776 20.3409 17.1185C21.2278 16.5272 21.1521 16.3119 20.0291 16.2316L19.1554 16.1691L18.9042 15.3879C18.6417 14.5712 18.3974 14.3986 18.2071 14.8953Z" fill="white"/>
<defs>
<filter id="filter0_f_0_108" x="0" y="0" width="37" height="37" filterUnits="userSpaceOnUse" color-interpolation-filters="sRGB">
<feFlood flood-opacity="0" result="BackgroundImageFix"/>
<feBlend mode="normal" in="SourceGraphic" in2="BackgroundImageFix" result="shape"/>
<feGaussianBlur stdDeviation="2" result="effect1_foregroundBlur_0_108"/>
</filter>
<linearGradient id="paint0_linear_0_108" x1="18.5" y1="4" x2="18.5" y2="33" gradientUnits="userSpaceOnUse">
<stop offset="0.103023" stop-color="#952FFE"/>
<stop offset="0.443926" stop-color="#C641C6"/>
<stop offset="0.76148" stop-color="#FF676B"/>
</linearGradient>
<linearGradient id="paint1_linear_0_108" x1="18.5" y1="4" x2="18.5" y2="33" gradientUnits="userSpaceOnUse">
<stop offset="0.103023" stop-color="#952FFE"/>
<stop offset="0.443926" stop-color="#C641C6"/>
<stop offset="0.76148" stop-color="#FF676B"/>
</linearGradient>
</defs>
</svg>
